<?xml version="1.0" encoding="UTF-8" standalone="no"?>
<!DOCTYPE svg PUBLIC "-//W3C//DTD SVG 1.1//EN"
 "http://www.w3.org/Graphics/SVG/1.1/DTD/svg11.dtd">
<!-- Generated by graphviz version 2.38.0 (20140413.2041)
 -->
<!-- Title: workflow Pages: 1 -->
<svg width="1808pt" height="640pt"
 viewBox="0.00 0.00 1808.00 640.00" xmlns="http://www.w3.org/2000/svg" xmlns:xlink="http://www.w3.org/1999/xlink">
<g id="graph0" class="graph" transform="scale(1 1) rotate(0) translate(4 636)">
<title>workflow</title>
<polygon fill="white" stroke="none" points="-4,4 -4,-636 1804,-636 1804,4 -4,4"/>
<!-- place_new -->
<g id="node1" class="node"><title>place_new</title>
<ellipse fill="lightblue" stroke="#333333" cx="36" cy="-426" rx="36" ry="36"/>
<text text-anchor="middle" x="36" y="-423.8" font-family="Arial" font-size="9.00">new</text>
</g>
<!-- transition_resignation_request -->
<g id="node29" class="node"><title>transition_resignation_request</title>
<polygon fill="none" stroke="#333333" points="180,-462 108,-462 108,-390 180,-390 180,-462"/>
<text text-anchor="middle" x="144" y="-423.8" font-family="Arial" font-size="9.00">resignation_request</text>
</g>
<!-- place_new&#45;&gt;transition_resignation_request -->
<g id="edge1" class="edge"><title>place_new&#45;&gt;transition_resignation_request</title>
<path fill="none" stroke="#333333" d="M72.0021,-426C81.7591,-426 92.4394,-426 102.485,-426"/>
<polygon fill="#333333" stroke="#333333" points="102.672,-427.75 107.672,-426 102.672,-424.25 102.672,-427.75"/>
</g>
<!-- place_waiting_hr_approval -->
<g id="node2" class="node"><title>place_waiting_hr_approval</title>
<ellipse fill="none" stroke="#333333" cx="252" cy="-516" rx="36" ry="36"/>
<text text-anchor="middle" x="252" y="-513.8" font-family="Arial" font-size="9.00">waiting_HR_approval</text>
</g>
<!-- transition_exit_enterview -->
<g id="node30" class="node"><title>transition_exit_enterview</title>
<polygon fill="none" stroke="#333333" points="396,-552 324,-552 324,-480 396,-480 396,-552"/>
<text text-anchor="middle" x="360" y="-513.8" font-family="Arial" font-size="9.00">exit_enterview</text>
</g>
<!-- place_waiting_hr_approval&#45;&gt;transition_exit_enterview -->
<g id="edge5" class="edge"><title>place_waiting_hr_approval&#45;&gt;transition_exit_enterview</title>
<path fill="none" stroke="#333333" d="M288.002,-516C297.759,-516 308.439,-516 318.485,-516"/>
<polygon fill="#333333" stroke="#333333" points="318.672,-517.75 323.672,-516 318.672,-514.25 318.672,-517.75"/>
</g>
<!-- place_exit_enterview_done -->
<g id="node3" class="node"><title>place_exit_enterview_done</title>
<ellipse fill="none" stroke="#333333" cx="468" cy="-516" rx="36" ry="36"/>
<text text-anchor="middle" x="468" y="-513.8" font-family="Arial" font-size="9.00">exit_enterview_done</text>
</g>
<!-- transition_prepare_docs -->
<g id="node31" class="node"><title>transition_prepare_docs</title>
<polygon fill="none" stroke="#333333" points="612,-552 540,-552 540,-480 612,-480 612,-552"/>
<text text-anchor="middle" x="576" y="-513.8" font-family="Arial" font-size="9.00">prepare_docs</text>
</g>
<!-- place_exit_enterview_done&#45;&gt;transition_prepare_docs -->
<g id="edge7" class="edge"><title>place_exit_enterview_done&#45;&gt;transition_prepare_docs</title>
<path fill="none" stroke="#333333" d="M504.002,-516C513.759,-516 524.439,-516 534.485,-516"/>
<polygon fill="#333333" stroke="#333333" points="534.672,-517.75 539.672,-516 534.672,-514.25 534.672,-517.75"/>
</g>
<!-- place_waiting_docs_in_branch -->
<g id="node4" class="node"><title>place_waiting_docs_in_branch</title>
<ellipse fill="none" stroke="#333333" cx="684" cy="-596" rx="36" ry="36"/>
<text text-anchor="middle" x="684" y="-593.8" font-family="Arial" font-size="9.00">waiting_docs_in_branch</text>
</g>
<!-- transition_deliver_docs_in_branch -->
<g id="node32" class="node"><title>transition_deliver_docs_in_branch</title>
<polygon fill="none" stroke="#333333" points="828,-632 756,-632 756,-560 828,-560 828,-632"/>
<text text-anchor="middle" x="792" y="-593.8" font-family="Arial" font-size="9.00">deliver_docs_in_branch</text>
</g>
<!-- place_waiting_docs_in_branch&#45;&gt;transition_deliver_docs_in_branch -->
<g id="edge10" class="edge"><title>place_waiting_docs_in_branch&#45;&gt;transition_deliver_docs_in_branch</title>
<path fill="none" stroke="#333333" d="M720.002,-596C729.759,-596 740.439,-596 750.485,-596"/>
<polygon fill="#333333" stroke="#333333" points="750.672,-597.75 755.672,-596 750.672,-594.25 750.672,-597.75"/>
</g>
<!-- place_waiting_docs_in_main_office -->
<g id="node5" class="node"><title>place_waiting_docs_in_main_office</title>
<ellipse fill="none" stroke="#333333" cx="684" cy="-506" rx="36" ry="36"/>
<text text-anchor="middle" x="684" y="-503.8" font-family="Arial" font-size="9.00">waiting_docs_in_main_office</text>
</g>
<!-- transition_deliver_docs_in_main_office -->
<g id="node33" class="node"><title>transition_deliver_docs_in_main_office</title>
<polygon fill="none" stroke="#333333" points="828,-542 756,-542 756,-470 828,-470 828,-542"/>
<text text-anchor="middle" x="792" y="-503.8" font-family="Arial" font-size="9.00">deliver_docs_in_main_office</text>
</g>
<!-- place_waiting_docs_in_main_office&#45;&gt;transition_deliver_docs_in_main_office -->
<g id="edge12" class="edge"><title>place_waiting_docs_in_main_office&#45;&gt;transition_deliver_docs_in_main_office</title>
<path fill="none" stroke="#333333" d="M720.002,-506C729.759,-506 740.439,-506 750.485,-506"/>
<polygon fill="#333333" stroke="#333333" points="750.672,-507.75 755.672,-506 750.672,-504.25 750.672,-507.75"/>
</g>
<!-- place_docs_delivered_in_branch -->
<g id="node6" class="node"><title>place_docs_delivered_in_branch</title>
<ellipse fill="none" stroke="#333333" cx="900" cy="-596" rx="36" ry="36"/>
<text text-anchor="middle" x="900" y="-593.8" font-family="Arial" font-size="9.00">docs_delivered_in_branch</text>
</g>
<!-- transition_hr_deliver_all_docs -->
<g id="node34" class="node"><title>transition_hr_deliver_all_docs</title>
<polygon fill="none" stroke="#333333" points="1044,-560 972,-560 972,-488 1044,-488 1044,-560"/>
<text text-anchor="middle" x="1008" y="-521.8" font-family="Arial" font-size="9.00">HR_deliver_all_docs</text>
</g>
<!-- place_docs_delivered_in_branch&#45;&gt;transition_hr_deliver_all_docs -->
<g id="edge15" class="edge"><title>place_docs_delivered_in_branch&#45;&gt;transition_hr_deliver_all_docs</title>
<path fill="none" stroke="#333333" d="M930.246,-576.135C941.807,-568.282 955.271,-559.137 967.664,-550.719"/>
<polygon fill="#333333" stroke="#333333" points="968.669,-552.152 971.822,-547.894 966.703,-549.256 968.669,-552.152"/>
</g>
<!-- place_docs_delivered_in_main_office -->
<g id="node7" class="node"><title>place_docs_delivered_in_main_office</title>
<ellipse fill="none" stroke="#333333" cx="900" cy="-506" rx="36" ry="36"/>
<text text-anchor="middle" x="900" y="-503.8" font-family="Arial" font-size="9.00">docs_delivered_in_main_office</text>
</g>
<!-- place_docs_delivered_in_main_office&#45;&gt;transition_hr_deliver_all_docs -->
<g id="edge14" class="edge"><title>place_docs_delivered_in_main_office&#45;&gt;transition_hr_deliver_all_docs</title>
<path fill="none" stroke="#333333" d="M935.708,-511.894C945.671,-513.586 956.616,-515.444 966.876,-517.187"/>
<polygon fill="#333333" stroke="#333333" points="966.628,-518.919 971.851,-518.031 967.214,-515.469 966.628,-518.919"/>
</g>
<!-- place_waiting_hr_manager_approval -->
<g id="node8" class="node"><title>place_waiting_hr_manager_approval</title>
<ellipse fill="none" stroke="#333333" cx="1116" cy="-522" rx="36" ry="36"/>
<text text-anchor="middle" x="1116" y="-519.8" font-family="Arial" font-size="9.00">waiting_HR_manager_approval</text>
</g>
<!-- transition_hr_manager_approval -->
<g id="node35" class="node"><title>transition_hr_manager_approval</title>
<polygon fill="none" stroke="#333333" points="1260,-545 1188,-545 1188,-473 1260,-473 1260,-545"/>
<text text-anchor="middle" x="1224" y="-506.8" font-family="Arial" font-size="9.00">HR_manager_approval</text>
</g>
<!-- place_waiting_hr_manager_approval&#45;&gt;transition_hr_manager_approval -->
<g id="edge17" class="edge"><title>place_waiting_hr_manager_approval&#45;&gt;transition_hr_manager_approval</title>
<path fill="none" stroke="#333333" d="M1152,-517.707C1161.76,-516.511 1172.44,-515.201 1182.49,-513.969"/>
<polygon fill="#333333" stroke="#333333" points="1182.92,-515.678 1187.67,-513.333 1182.5,-512.204 1182.92,-515.678"/>
</g>
<!-- place_hr_approved -->
<g id="node9" class="node"><title>place_hr_approved</title>
<ellipse fill="none" stroke="#333333" cx="1440" cy="-501" rx="36" ry="36"/>
<text text-anchor="middle" x="1440" y="-498.8" font-family="Arial" font-size="9.00">HR_approved</text>
</g>
<!-- transition_ceo_final_approval -->
<g id="node48" class="node"><title>transition_ceo_final_approval</title>
<polygon fill="none" stroke="#333333" points="1692,-470 1620,-470 1620,-398 1692,-398 1692,-470"/>
<text text-anchor="middle" x="1656" y="-431.8" font-family="Arial" font-size="9.00">CEO_final_approval</text>
</g>
<!-- place_hr_approved&#45;&gt;transition_ceo_final_approval -->
<g id="edge51" class="edge"><title>place_hr_approved&#45;&gt;transition_ceo_final_approval</title>
<path fill="none" stroke="#333333" d="M1474.91,-490.384C1512.96,-478.47 1574.64,-459.16 1615.01,-446.52"/>
<polygon fill="#333333" stroke="#333333" points="1615.58,-448.176 1619.83,-445.012 1614.53,-444.836 1615.58,-448.176"/>
</g>
<!-- place_waiting_it_approval -->
<g id="node10" class="node"><title>place_waiting_it_approval</title>
<ellipse fill="none" stroke="#333333" cx="252" cy="-426" rx="36" ry="36"/>
<text text-anchor="middle" x="252" y="-423.8" font-family="Arial" font-size="9.00">waiting_IT_approval</text>
</g>
<!-- transition_disable_email_account -->
<g id="node36" class="node"><title>transition_disable_email_account</title>
<polygon fill="none" stroke="#333333" points="396,-462 324,-462 324,-390 396,-390 396,-462"/>
<text text-anchor="middle" x="360" y="-423.8" font-family="Arial" font-size="9.00">disable_email_account</text>
</g>
<!-- place_waiting_it_approval&#45;&gt;transition_disable_email_account -->
<g id="edge19" class="edge"><title>place_waiting_it_approval&#45;&gt;transition_disable_email_account</title>
<path fill="none" stroke="#333333" d="M288.002,-426C297.759,-426 308.439,-426 318.485,-426"/>
<polygon fill="#333333" stroke="#333333" points="318.672,-427.75 323.672,-426 318.672,-424.25 318.672,-427.75"/>
</g>
<!-- place_email_disabled_and_wait_it_manager -->
<g id="node11" class="node"><title>place_email_disabled_and_wait_it_manager</title>
<ellipse fill="none" stroke="#333333" cx="576" cy="-426" rx="36" ry="36"/>
<text text-anchor="middle" x="576" y="-423.8" font-family="Arial" font-size="9.00">email_disabled_and_wait_IT_manager</text>
</g>
<!-- transition_it_manager_approval -->
<g id="node37" class="node"><title>transition_it_manager_approval</title>
<polygon fill="none" stroke="#333333" points="1044,-470 972,-470 972,-398 1044,-398 1044,-470"/>
<text text-anchor="middle" x="1008" y="-431.8" font-family="Arial" font-size="9.00">IT_manager_approval</text>
</g>
<!-- place_email_disabled_and_wait_it_manager&#45;&gt;transition_it_manager_approval -->
<g id="edge21" class="edge"><title>place_email_disabled_and_wait_it_manager&#45;&gt;transition_it_manager_approval</title>
<path fill="none" stroke="#333333" d="M612.189,-426.655C691.364,-428.128 883.129,-431.695 966.816,-433.252"/>
<polygon fill="#333333" stroke="#333333" points="966.896,-435.004 971.928,-433.348 966.962,-431.505 966.896,-435.004"/>
</g>
<!-- place_it_approved -->
<g id="node12" class="node"><title>place_it_approved</title>
<ellipse fill="none" stroke="#333333" cx="1332" cy="-434" rx="36" ry="36"/>
<text text-anchor="middle" x="1332" y="-431.8" font-family="Arial" font-size="9.00">IT_approved</text>
</g>
<!-- place_it_approved&#45;&gt;transition_ceo_final_approval -->
<g id="edge52" class="edge"><title>place_it_approved&#45;&gt;transition_ceo_final_approval</title>
<path fill="none" stroke="#333333" d="M1368.07,-434C1428.32,-434 1551.11,-434 1614.75,-434"/>
<polygon fill="#333333" stroke="#333333" points="1614.97,-435.75 1619.97,-434 1614.97,-432.25 1614.97,-435.75"/>
</g>
<!-- place_waiting_accountant_approval -->
<g id="node13" class="node"><title>place_waiting_accountant_approval</title>
<ellipse fill="none" stroke="#333333" cx="252" cy="-316" rx="36" ry="36"/>
<text text-anchor="middle" x="252" y="-313.8" font-family="Arial" font-size="9.00">waiting_accountant_approval</text>
</g>
<!-- transition_end_finance_relation -->
<g id="node38" class="node"><title>transition_end_finance_relation</title>
<polygon fill="none" stroke="#333333" points="396,-314 324,-314 324,-242 396,-242 396,-314"/>
<text text-anchor="middle" x="360" y="-275.8" font-family="Arial" font-size="9.00">end_finance_relation</text>
</g>
<!-- place_waiting_accountant_approval&#45;&gt;transition_end_finance_relation -->
<g id="edge23" class="edge"><title>place_waiting_accountant_approval&#45;&gt;transition_end_finance_relation</title>
<path fill="none" stroke="#333333" d="M286.248,-304.081C296.568,-300.381 308.054,-296.264 318.794,-292.414"/>
<polygon fill="#333333" stroke="#333333" points="319.553,-294.001 323.669,-290.666 318.372,-290.706 319.553,-294.001"/>
</g>
<!-- place_waiting_purchasing_dep_approval -->
<g id="node14" class="node"><title>place_waiting_purchasing_dep_approval</title>
<ellipse fill="none" stroke="#333333" cx="468" cy="-349" rx="36" ry="36"/>
<text text-anchor="middle" x="468" y="-346.8" font-family="Arial" font-size="9.00">waiting_purchasing_dep_approval</text>
</g>
<!-- transition_no_pending_purchasing -->
<g id="node39" class="node"><title>transition_no_pending_purchasing</title>
<polygon fill="none" stroke="#333333" points="1044,-380 972,-380 972,-308 1044,-308 1044,-380"/>
<text text-anchor="middle" x="1008" y="-341.8" font-family="Arial" font-size="9.00">no_pending_purchasing</text>
</g>
<!-- place_waiting_purchasing_dep_approval&#45;&gt;transition_no_pending_purchasing -->
<g id="edge27" class="edge"><title>place_waiting_purchasing_dep_approval&#45;&gt;transition_no_pending_purchasing</title>
<path fill="none" stroke="#333333" d="M504.215,-348.204C546.624,-347.315 620.02,-346 683,-346 683,-346 683,-346 793,-346 853.517,-346 923.655,-345.19 966.675,-344.601"/>
<polygon fill="#333333" stroke="#333333" points="966.809,-346.35 971.784,-344.531 966.76,-342.85 966.809,-346.35"/>
</g>
<!-- place_purchasing_dep_approved -->
<g id="node15" class="node"><title>place_purchasing_dep_approved</title>
<ellipse fill="none" stroke="#333333" cx="1116" cy="-344" rx="36" ry="36"/>
<text text-anchor="middle" x="1116" y="-341.8" font-family="Arial" font-size="9.00">purchasing_dep_approved</text>
</g>
<!-- transition_accountant_manager_approval -->
<g id="node47" class="node"><title>transition_accountant_manager_approval</title>
<polygon fill="none" stroke="#333333" points="1476,-348 1404,-348 1404,-276 1476,-276 1476,-348"/>
<text text-anchor="middle" x="1440" y="-309.8" font-family="Arial" font-size="9.00">accountant_manager_approval</text>
</g>
<!-- place_purchasing_dep_approved&#45;&gt;transition_accountant_manager_approval -->
<g id="edge47" class="edge"><title>place_purchasing_dep_approved&#45;&gt;transition_accountant_manager_approval</title>
<path fill="none" stroke="#333333" d="M1152.07,-340.515C1212.32,-334.527 1335.11,-322.325 1398.75,-316"/>
<polygon fill="#333333" stroke="#333333" points="1399.17,-317.717 1403.97,-315.481 1398.82,-314.234 1399.17,-317.717"/>
</g>
<!-- place_waiting_bank_account_closing -->
<g id="node16" class="node"><title>place_waiting_bank_account_closing</title>
<ellipse fill="none" stroke="#333333" cx="468" cy="-259" rx="36" ry="36"/>
<text text-anchor="middle" x="468" y="-256.8" font-family="Arial" font-size="9.00">waiting_bank_account_closing</text>
</g>
<!-- transition_bank_account_closed -->
<g id="node40" class="node"><title>transition_bank_account_closed</title>
<polygon fill="none" stroke="#333333" points="612,-303 540,-303 540,-231 612,-231 612,-303"/>
<text text-anchor="middle" x="576" y="-264.8" font-family="Arial" font-size="9.00">bank_account_closed</text>
</g>
<!-- place_waiting_bank_account_closing&#45;&gt;transition_bank_account_closed -->
<g id="edge29" class="edge"><title>place_waiting_bank_account_closing&#45;&gt;transition_bank_account_closed</title>
<path fill="none" stroke="#333333" d="M504.002,-261.642C513.759,-262.378 524.439,-263.184 534.485,-263.942"/>
<polygon fill="#333333" stroke="#333333" points="534.555,-265.702 539.672,-264.334 534.818,-262.212 534.555,-265.702"/>
</g>
<!-- place_bank_account_closed -->
<g id="node17" class="node"><title>place_bank_account_closed</title>
<ellipse fill="none" stroke="#333333" cx="1224" cy="-280" rx="36" ry="36"/>
<text text-anchor="middle" x="1224" y="-277.8" font-family="Arial" font-size="9.00">bank_account_closed</text>
</g>
<!-- place_bank_account_closed&#45;&gt;transition_accountant_manager_approval -->
<g id="edge48" class="edge"><title>place_bank_account_closed&#45;&gt;transition_accountant_manager_approval</title>
<path fill="none" stroke="#333333" d="M1259.86,-285.213C1297.83,-290.891 1358.49,-299.961 1398.53,-305.949"/>
<polygon fill="#333333" stroke="#333333" points="1398.6,-307.728 1403.8,-306.736 1399.11,-304.266 1398.6,-307.728"/>
</g>
<!-- place_waiting_personal_loans_closing -->
<g id="node18" class="node"><title>place_waiting_personal_loans_closing</title>
<ellipse fill="none" stroke="#333333" cx="468" cy="-157" rx="36" ry="36"/>
<text text-anchor="middle" x="468" y="-154.8" font-family="Arial" font-size="9.00">waiting_personal_loans_closing</text>
</g>
<!-- transition_check_personal_loans -->
<g id="node41" class="node"><title>transition_check_personal_loans</title>
<polygon fill="none" stroke="#333333" points="612,-178 540,-178 540,-106 612,-106 612,-178"/>
<text text-anchor="middle" x="576" y="-139.8" font-family="Arial" font-size="9.00">check_personal_loans</text>
</g>
<!-- place_waiting_personal_loans_closing&#45;&gt;transition_check_personal_loans -->
<g id="edge31" class="edge"><title>place_waiting_personal_loans_closing&#45;&gt;transition_check_personal_loans</title>
<path fill="none" stroke="#333333" d="M503.708,-152.088C513.671,-150.679 524.616,-149.13 534.876,-147.678"/>
<polygon fill="#333333" stroke="#333333" points="535.145,-149.407 539.851,-146.974 534.655,-145.942 535.145,-149.407"/>
</g>
<!-- place_waiting_personal_loans_closing_indep_1 -->
<g id="node19" class="node"><title>place_waiting_personal_loans_closing_indep_1</title>
<ellipse fill="none" stroke="#333333" cx="684" cy="-213" rx="36" ry="36"/>
<text text-anchor="middle" x="684" y="-210.8" font-family="Arial" font-size="9.00">waiting_personal_loans_closing_indep_1</text>
</g>
<!-- transition_personal_loans_closing_indep_1_to_1_1 -->
<g id="node42" class="node"><title>transition_personal_loans_closing_indep_1_to_1_1</title>
<polygon fill="none" stroke="#333333" points="828,-252 756,-252 756,-180 828,-180 828,-252"/>
<text text-anchor="middle" x="792" y="-213.8" font-family="Arial" font-size="9.00">personal_loans_closing_indep_1_to_1_1</text>
</g>
<!-- place_waiting_personal_loans_closing_indep_1&#45;&gt;transition_personal_loans_closing_indep_1_to_1_1 -->
<g id="edge35" class="edge"><title>place_waiting_personal_loans_closing_indep_1&#45;&gt;transition_personal_loans_closing_indep_1_to_1_1</title>
<path fill="none" stroke="#333333" d="M720.002,-213.991C729.759,-214.267 740.439,-214.569 750.485,-214.853"/>
<polygon fill="#333333" stroke="#333333" points="750.625,-216.608 755.672,-215 750.724,-213.109 750.625,-216.608"/>
</g>
<!-- place_waiting_personal_loans_closing_indep_1_1 -->
<g id="node20" class="node"><title>place_waiting_personal_loans_closing_indep_1_1</title>
<ellipse fill="none" stroke="#333333" cx="900" cy="-216" rx="36" ry="36"/>
<text text-anchor="middle" x="900" y="-213.8" font-family="Arial" font-size="9.00">waiting_personal_loans_closing_indep_1_1</text>
</g>
<!-- transition_personal_loans_closing_indep_1_1_to_1_2 -->
<g id="node43" class="node"><title>transition_personal_loans_closing_indep_1_1_to_1_2</title>
<polygon fill="none" stroke="#333333" points="1044,-252 972,-252 972,-180 1044,-180 1044,-252"/>
<text text-anchor="middle" x="1008" y="-213.8" font-family="Arial" font-size="9.00">personal_loans_closing_indep_1_1_to_1_2</text>
</g>
<!-- place_waiting_personal_loans_closing_indep_1_1&#45;&gt;transition_personal_loans_closing_indep_1_1_to_1_2 -->
<g id="edge37" class="edge"><title>place_waiting_personal_loans_closing_indep_1_1&#45;&gt;transition_personal_loans_closing_indep_1_1_to_1_2</title>
<path fill="none" stroke="#333333" d="M936.002,-216C945.759,-216 956.439,-216 966.485,-216"/>
<polygon fill="#333333" stroke="#333333" points="966.672,-217.75 971.672,-216 966.672,-214.25 966.672,-217.75"/>
</g>
<!-- place_waiting_personal_loans_closing_indep_1_2 -->
<g id="node21" class="node"><title>place_waiting_personal_loans_closing_indep_1_2</title>
<ellipse fill="none" stroke="#333333" cx="1116" cy="-216" rx="36" ry="36"/>
<text text-anchor="middle" x="1116" y="-213.8" font-family="Arial" font-size="9.00">waiting_personal_loans_closing_indep_1_2</text>
</g>
<!-- transition_close_personal_loans -->
<g id="node46" class="node"><title>transition_close_personal_loans</title>
<polygon fill="none" stroke="#333333" points="1260,-194 1188,-194 1188,-122 1260,-122 1260,-194"/>
<text text-anchor="middle" x="1224" y="-155.8" font-family="Arial" font-size="9.00">close_personal_loans</text>
</g>
<!-- place_waiting_personal_loans_closing_indep_1_2&#45;&gt;transition_close_personal_loans -->
<g id="edge43" class="edge"><title>place_waiting_personal_loans_closing_indep_1_2&#45;&gt;transition_close_personal_loans</title>
<path fill="none" stroke="#333333" d="M1147.94,-199.068C1158.95,-193.046 1171.5,-186.18 1183.14,-179.808"/>
<polygon fill="#333333" stroke="#333333" points="1184.18,-181.235 1187.73,-177.299 1182.5,-178.164 1184.18,-181.235"/>
</g>
<!-- place_waiting_personal_loans_closing_indep_2 -->
<g id="node22" class="node"><title>place_waiting_personal_loans_closing_indep_2</title>
<ellipse fill="none" stroke="#333333" cx="792" cy="-126" rx="36" ry="36"/>
<text text-anchor="middle" x="792" y="-123.8" font-family="Arial" font-size="9.00">waiting_personal_loans_closing_indep_2</text>
</g>
<!-- transition_personal_loans_closing_indep_2_to_2_1 -->
<g id="node44" class="node"><title>transition_personal_loans_closing_indep_2_to_2_1</title>
<polygon fill="none" stroke="#333333" points="936,-162 864,-162 864,-90 936,-90 936,-162"/>
<text text-anchor="middle" x="900" y="-123.8" font-family="Arial" font-size="9.00">personal_loans_closing_indep_2_to_2_1</text>
</g>
<!-- place_waiting_personal_loans_closing_indep_2&#45;&gt;transition_personal_loans_closing_indep_2_to_2_1 -->
<g id="edge39" class="edge"><title>place_waiting_personal_loans_closing_indep_2&#45;&gt;transition_personal_loans_closing_indep_2_to_2_1</title>
<path fill="none" stroke="#333333" d="M828.002,-126C837.759,-126 848.439,-126 858.485,-126"/>
<polygon fill="#333333" stroke="#333333" points="858.672,-127.75 863.672,-126 858.672,-124.25 858.672,-127.75"/>
</g>
<!-- place_waiting_personal_loans_closing_indep_2_1 -->
<g id="node23" class="node"><title>place_waiting_personal_loans_closing_indep_2_1</title>
<ellipse fill="none" stroke="#333333" cx="1116" cy="-126" rx="36" ry="36"/>
<text text-anchor="middle" x="1116" y="-123.8" font-family="Arial" font-size="9.00">waiting_personal_loans_closing_indep_2_1</text>
</g>
<!-- place_waiting_personal_loans_closing_indep_2_1&#45;&gt;transition_close_personal_loans -->
<g id="edge44" class="edge"><title>place_waiting_personal_loans_closing_indep_2_1&#45;&gt;transition_close_personal_loans</title>
<path fill="none" stroke="#333333" d="M1150.83,-136.213C1161.02,-139.29 1172.31,-142.697 1182.87,-145.886"/>
<polygon fill="#333333" stroke="#333333" points="1182.37,-147.563 1187.67,-147.333 1183.38,-144.213 1182.37,-147.563"/>
</g>
<!-- place_waiting_personal_loans_closing_indep_3 -->
<g id="node24" class="node"><title>place_waiting_personal_loans_closing_indep_3</title>
<ellipse fill="none" stroke="#333333" cx="684" cy="-66" rx="36" ry="36"/>
<text text-anchor="middle" x="684" y="-63.8" font-family="Arial" font-size="9.00">waiting_personal_loans_closing_indep_3</text>
</g>
<!-- transition_personal_loans_closing_indep_3_to_3_1 -->
<g id="node45" class="node"><title>transition_personal_loans_closing_indep_3_to_3_1</title>
<polygon fill="none" stroke="#333333" points="936,-72 864,-72 864,-0 936,-0 936,-72"/>
<text text-anchor="middle" x="900" y="-33.8" font-family="Arial" font-size="9.00">personal_loans_closing_indep_3_to_3_1</text>
</g>
<!-- place_waiting_personal_loans_closing_indep_3&#45;&gt;transition_personal_loans_closing_indep_3_to_3_1 -->
<g id="edge41" class="edge"><title>place_waiting_personal_loans_closing_indep_3&#45;&gt;transition_personal_loans_closing_indep_3_to_3_1</title>
<path fill="none" stroke="#333333" d="M719.859,-61.1132C757.83,-55.7901 818.49,-47.2865 858.535,-41.6727"/>
<polygon fill="#333333" stroke="#333333" points="859.091,-43.3619 863.8,-40.9346 858.605,-39.8958 859.091,-43.3619"/>
</g>
<!-- place_waiting_personal_loans_closing_indep_3_1 -->
<g id="node25" class="node"><title>place_waiting_personal_loans_closing_indep_3_1</title>
<ellipse fill="none" stroke="#333333" cx="1008" cy="-49" rx="36" ry="36"/>
<text text-anchor="middle" x="1008" y="-46.8" font-family="Arial" font-size="9.00">waiting_personal_loans_closing_indep_3_1</text>
</g>
<!-- place_waiting_personal_loans_closing_indep_3_1&#45;&gt;transition_close_personal_loans -->
<g id="edge45" class="edge"><title>place_waiting_personal_loans_closing_indep_3_1&#45;&gt;transition_close_personal_loans</title>
<path fill="none" stroke="#333333" d="M1044.04,-50.9892C1074.37,-54.0247 1118.5,-61.6843 1152,-81 1168.13,-90.2986 1182.71,-104.474 1194.4,-118.139"/>
<polygon fill="#333333" stroke="#333333" points="1193.07,-119.271 1197.63,-121.975 1195.75,-117.021 1193.07,-119.271"/>
</g>
<!-- place_personal_loans_closed -->
<g id="node26" class="node"><title>place_personal_loans_closed</title>
<ellipse fill="none" stroke="#333333" cx="1332" cy="-187" rx="36" ry="36"/>
<text text-anchor="middle" x="1332" y="-184.8" font-family="Arial" font-size="9.00">personal_loans_closed</text>
</g>
<!-- place_personal_loans_closed&#45;&gt;transition_accountant_manager_approval -->
<g id="edge49" class="edge"><title>place_personal_loans_closed&#45;&gt;transition_accountant_manager_approval</title>
<path fill="none" stroke="#333333" d="M1356,-214.123C1370.27,-230.945 1388.85,-252.866 1404.82,-271.697"/>
<polygon fill="#333333" stroke="#333333" points="1403.83,-273.231 1408.4,-275.913 1406.5,-270.968 1403.83,-273.231"/>
</g>
<!-- place_accountant_approved -->
<g id="node27" class="node"><title>place_accountant_approved</title>
<ellipse fill="none" stroke="#333333" cx="1548" cy="-350" rx="36" ry="36"/>
<text text-anchor="middle" x="1548" y="-347.8" font-family="Arial" font-size="9.00">accountant_approved</text>
</g>
<!-- place_accountant_approved&#45;&gt;transition_ceo_final_approval -->
<g id="edge53" class="edge"><title>place_accountant_approved&#45;&gt;transition_ceo_final_approval</title>
<path fill="none" stroke="#333333" d="M1576.85,-372.07C1588.75,-381.497 1602.84,-392.668 1615.77,-402.909"/>
<polygon fill="#333333" stroke="#333333" points="1614.73,-404.321 1619.74,-406.055 1616.9,-401.578 1614.73,-404.321"/>
</g>
<!-- place_ceo_approved -->
<g id="node28" class="node"><title>place_ceo_approved</title>
<ellipse fill="none" stroke="#333333" cx="1764" cy="-434" rx="36" ry="36"/>
<text text-anchor="middle" x="1764" y="-431.8" font-family="Arial" font-size="9.00">CEO_approved</text>
</g>
<!-- transition_resignation_request&#45;&gt;place_waiting_hr_approval -->
<g id="edge2" class="edge"><title>transition_resignation_request&#45;&gt;place_waiting_hr_approval</title>
<path fill="none" stroke="#333333" d="M180.002,-455.719C193.009,-466.762 207.657,-479.199 220.255,-489.895"/>
<polygon fill="#333333" stroke="#333333" points="219.15,-491.253 224.094,-493.156 221.416,-488.585 219.15,-491.253"/>
</g>
<!-- transition_resignation_request&#45;&gt;place_waiting_it_approval -->
<g id="edge3" class="edge"><title>transition_resignation_request&#45;&gt;place_waiting_it_approval</title>
<path fill="none" stroke="#333333" d="M180.002,-426C189.759,-426 200.439,-426 210.485,-426"/>
<polygon fill="#333333" stroke="#333333" points="210.672,-427.75 215.672,-426 210.672,-424.25 210.672,-427.75"/>
</g>
<!-- transition_resignation_request&#45;&gt;place_waiting_accountant_approval -->
<g id="edge4" class="edge"><title>transition_resignation_request&#45;&gt;place_waiting_accountant_approval</title>
<path fill="none" stroke="#333333" d="M179.708,-389.982C193.616,-375.549 209.44,-359.129 222.64,-345.43"/>
<polygon fill="#333333" stroke="#333333" points="224.08,-346.457 226.29,-341.643 221.56,-344.029 224.08,-346.457"/>
</g>
<!-- transition_exit_enterview&#45;&gt;place_exit_enterview_done -->
<g id="edge6" class="edge"><title>transition_exit_enterview&#45;&gt;place_exit_enterview_done</title>
<path fill="none" stroke="#333333" d="M396.002,-516C405.759,-516 416.439,-516 426.485,-516"/>
<polygon fill="#333333" stroke="#333333" points="426.672,-517.75 431.672,-516 426.672,-514.25 426.672,-517.75"/>
</g>
<!-- transition_prepare_docs&#45;&gt;place_waiting_docs_in_branch -->
<g id="edge8" class="edge"><title>transition_prepare_docs&#45;&gt;place_waiting_docs_in_branch</title>
<path fill="none" stroke="#333333" d="M612.002,-542.417C624.463,-551.821 638.431,-562.363 650.659,-571.592"/>
<polygon fill="#333333" stroke="#333333" points="649.689,-573.052 654.734,-574.667 651.798,-570.258 649.689,-573.052"/>
</g>
<!-- transition_prepare_docs&#45;&gt;place_waiting_docs_in_main_office -->
<g id="edge9" class="edge"><title>transition_prepare_docs&#45;&gt;place_waiting_docs_in_main_office</title>
<path fill="none" stroke="#333333" d="M612.002,-512.698C621.862,-511.768 632.664,-510.749 642.802,-509.792"/>
<polygon fill="#333333" stroke="#333333" points="643.221,-511.511 648.035,-509.299 642.892,-508.026 643.221,-511.511"/>
</g>
<!-- transition_deliver_docs_in_branch&#45;&gt;place_docs_delivered_in_branch -->
<g id="edge11" class="edge"><title>transition_deliver_docs_in_branch&#45;&gt;place_docs_delivered_in_branch</title>
<path fill="none" stroke="#333333" d="M828.002,-596C837.759,-596 848.439,-596 858.485,-596"/>
<polygon fill="#333333" stroke="#333333" points="858.672,-597.75 863.672,-596 858.672,-594.25 858.672,-597.75"/>
</g>
<!-- transition_deliver_docs_in_main_office&#45;&gt;place_docs_delivered_in_main_office -->
<g id="edge13" class="edge"><title>transition_deliver_docs_in_main_office&#45;&gt;place_docs_delivered_in_main_office</title>
<path fill="none" stroke="#333333" d="M828.002,-506C837.759,-506 848.439,-506 858.485,-506"/>
<polygon fill="#333333" stroke="#333333" points="858.672,-507.75 863.672,-506 858.672,-504.25 858.672,-507.75"/>
</g>
<!-- transition_hr_deliver_all_docs&#45;&gt;place_waiting_hr_manager_approval -->
<g id="edge16" class="edge"><title>transition_hr_deliver_all_docs&#45;&gt;place_waiting_hr_manager_approval</title>
<path fill="none" stroke="#333333" d="M1044,-523.34C1053.76,-523.155 1064.44,-522.954 1074.49,-522.764"/>
<polygon fill="#333333" stroke="#333333" points="1074.71,-524.511 1079.67,-522.667 1074.64,-521.011 1074.71,-524.511"/>
</g>
<!-- transition_hr_manager_approval&#45;&gt;place_hr_approved -->
<g id="edge18" class="edge"><title>transition_hr_manager_approval&#45;&gt;place_hr_approved</title>
<path fill="none" stroke="#333333" d="M1260.34,-507.679C1298.4,-506.256 1358.85,-503.996 1398.72,-502.506"/>
<polygon fill="#333333" stroke="#333333" points="1399.03,-504.245 1403.97,-502.31 1398.9,-500.748 1399.03,-504.245"/>
</g>
<!-- transition_disable_email_account&#45;&gt;place_email_disabled_and_wait_it_manager -->
<g id="edge20" class="edge"><title>transition_disable_email_account&#45;&gt;place_email_disabled_and_wait_it_manager</title>
<path fill="none" stroke="#333333" d="M396.338,-426C434.398,-426 494.847,-426 534.723,-426"/>
<polygon fill="#333333" stroke="#333333" points="534.965,-427.75 539.965,-426 534.965,-424.25 534.965,-427.75"/>
</g>
<!-- transition_it_manager_approval&#45;&gt;place_it_approved -->
<g id="edge22" class="edge"><title>transition_it_manager_approval&#45;&gt;place_it_approved</title>
<path fill="none" stroke="#333333" d="M1044.07,-434C1104.32,-434 1227.11,-434 1290.75,-434"/>
<polygon fill="#333333" stroke="#333333" points="1290.97,-435.75 1295.97,-434 1290.97,-432.25 1290.97,-435.75"/>
</g>
<!-- transition_end_finance_relation&#45;&gt;place_waiting_purchasing_dep_approval -->
<g id="edge24" class="edge"><title>transition_end_finance_relation&#45;&gt;place_waiting_purchasing_dep_approval</title>
<path fill="none" stroke="#333333" d="M396.002,-301.445C408.033,-309.503 421.467,-318.502 433.385,-326.484"/>
<polygon fill="#333333" stroke="#333333" points="432.574,-328.047 437.702,-329.376 434.521,-325.139 432.574,-328.047"/>
</g>
<!-- transition_end_finance_relation&#45;&gt;place_waiting_bank_account_closing -->
<g id="edge25" class="edge"><title>transition_end_finance_relation&#45;&gt;place_waiting_bank_account_closing</title>
<path fill="none" stroke="#333333" d="M396.002,-271.726C406.056,-269.924 417.09,-267.946 427.4,-266.098"/>
<polygon fill="#333333" stroke="#333333" points="427.783,-267.807 432.396,-265.203 427.166,-264.362 427.783,-267.807"/>
</g>
<!-- transition_end_finance_relation&#45;&gt;place_waiting_personal_loans_closing -->
<g id="edge26" class="edge"><title>transition_end_finance_relation&#45;&gt;place_waiting_personal_loans_closing</title>
<path fill="none" stroke="#333333" d="M392.803,-241.696C407.87,-224.498 425.673,-204.176 440.062,-187.75"/>
<polygon fill="#333333" stroke="#333333" points="441.665,-188.576 443.644,-183.662 439.032,-186.269 441.665,-188.576"/>
</g>
<!-- transition_no_pending_purchasing&#45;&gt;place_purchasing_dep_approved -->
<g id="edge28" class="edge"><title>transition_no_pending_purchasing&#45;&gt;place_purchasing_dep_approved</title>
<path fill="none" stroke="#333333" d="M1044,-344C1053.76,-344 1064.44,-344 1074.49,-344"/>
<polygon fill="#333333" stroke="#333333" points="1074.67,-345.75 1079.67,-344 1074.67,-342.25 1074.67,-345.75"/>
</g>
<!-- transition_bank_account_closed&#45;&gt;place_bank_account_closed -->
<g id="edge30" class="edge"><title>transition_bank_account_closed&#45;&gt;place_bank_account_closed</title>
<path fill="none" stroke="#333333" d="M612.177,-270.45C654.55,-274.301 727.91,-280 791,-280 791,-280 791,-280 1009,-280 1069.51,-280 1139.65,-280 1182.67,-280"/>
<polygon fill="#333333" stroke="#333333" points="1182.78,-281.75 1187.78,-280 1182.78,-278.25 1182.78,-281.75"/>
</g>
<!-- transition_check_personal_loans&#45;&gt;place_waiting_personal_loans_closing_indep_1 -->
<g id="edge32" class="edge"><title>transition_check_personal_loans&#45;&gt;place_waiting_personal_loans_closing_indep_1</title>
<path fill="none" stroke="#333333" d="M612.002,-165.445C624.033,-173.503 637.467,-182.502 649.385,-190.484"/>
<polygon fill="#333333" stroke="#333333" points="648.574,-192.047 653.702,-193.376 650.521,-189.139 648.574,-192.047"/>
</g>
<!-- transition_check_personal_loans&#45;&gt;place_waiting_personal_loans_closing_indep_2 -->
<g id="edge33" class="edge"><title>transition_check_personal_loans&#45;&gt;place_waiting_personal_loans_closing_indep_2</title>
<path fill="none" stroke="#333333" d="M612.338,-139.358C650.398,-136.512 710.847,-131.993 750.723,-129.011"/>
<polygon fill="#333333" stroke="#333333" points="751.11,-130.737 755.965,-128.619 750.849,-127.247 751.11,-130.737"/>
</g>
<!-- transition_check_personal_loans&#45;&gt;place_waiting_personal_loans_closing_indep_3 -->
<g id="edge34" class="edge"><title>transition_check_personal_loans&#45;&gt;place_waiting_personal_loans_closing_indep_3</title>
<path fill="none" stroke="#333333" d="M612.002,-116.904C624.248,-108.124 637.947,-98.3018 650.022,-89.6446"/>
<polygon fill="#333333" stroke="#333333" points="651.347,-90.8476 654.391,-86.5119 649.308,-88.0032 651.347,-90.8476"/>
</g>
<!-- transition_personal_loans_closing_indep_1_to_1_1&#45;&gt;place_waiting_personal_loans_closing_indep_1_1 -->
<g id="edge36" class="edge"><title>transition_personal_loans_closing_indep_1_to_1_1&#45;&gt;place_waiting_personal_loans_closing_indep_1_1</title>
<path fill="none" stroke="#333333" d="M828.002,-216C837.759,-216 848.439,-216 858.485,-216"/>
<polygon fill="#333333" stroke="#333333" points="858.672,-217.75 863.672,-216 858.672,-214.25 858.672,-217.75"/>
</g>
<!-- transition_personal_loans_closing_indep_1_1_to_1_2&#45;&gt;place_waiting_personal_loans_closing_indep_1_2 -->
<g id="edge38" class="edge"><title>transition_personal_loans_closing_indep_1_1_to_1_2&#45;&gt;place_waiting_personal_loans_closing_indep_1_2</title>
<path fill="none" stroke="#333333" d="M1044,-216C1053.76,-216 1064.44,-216 1074.49,-216"/>
<polygon fill="#333333" stroke="#333333" points="1074.67,-217.75 1079.67,-216 1074.67,-214.25 1074.67,-217.75"/>
</g>
<!-- transition_personal_loans_closing_indep_2_to_2_1&#45;&gt;place_waiting_personal_loans_closing_indep_2_1 -->
<g id="edge40" class="edge"><title>transition_personal_loans_closing_indep_2_to_2_1&#45;&gt;place_waiting_personal_loans_closing_indep_2_1</title>
<path fill="none" stroke="#333333" d="M936.338,-126C974.398,-126 1034.85,-126 1074.72,-126"/>
<polygon fill="#333333" stroke="#333333" points="1074.97,-127.75 1079.97,-126 1074.97,-124.25 1074.97,-127.75"/>
</g>
<!-- transition_personal_loans_closing_indep_3_to_3_1&#45;&gt;place_waiting_personal_loans_closing_indep_3_1 -->
<g id="edge42" class="edge"><title>transition_personal_loans_closing_indep_3_to_3_1&#45;&gt;place_waiting_personal_loans_closing_indep_3_1</title>
<path fill="none" stroke="#333333" d="M936.002,-40.2927C945.862,-41.5019 956.664,-42.8268 966.802,-44.0701"/>
<polygon fill="#333333" stroke="#333333" points="966.859,-45.84 972.035,-44.7118 967.285,-42.3661 966.859,-45.84"/>
</g>
<!-- transition_close_personal_loans&#45;&gt;place_personal_loans_closed -->
<g id="edge46" class="edge"><title>transition_close_personal_loans&#45;&gt;place_personal_loans_closed</title>
<path fill="none" stroke="#333333" d="M1260,-167.576C1270.26,-170.383 1281.55,-173.47 1292.04,-176.34"/>
<polygon fill="#333333" stroke="#333333" points="1291.83,-178.098 1297.12,-177.73 1292.75,-174.722 1291.83,-178.098"/>
</g>
<!-- transition_accountant_manager_approval&#45;&gt;place_accountant_approved -->
<g id="edge50" class="edge"><title>transition_accountant_manager_approval&#45;&gt;place_accountant_approved</title>
<path fill="none" stroke="#333333" d="M1476,-324.548C1486.57,-328.335 1498.21,-332.51 1508.96,-336.364"/>
<polygon fill="#333333" stroke="#333333" points="1508.54,-338.07 1513.83,-338.11 1509.72,-334.775 1508.54,-338.07"/>
</g>
<!-- transition_ceo_final_approval&#45;&gt;place_ceo_approved -->
<g id="edge54" class="edge"><title>transition_ceo_final_approval&#45;&gt;place_ceo_approved</title>
<path fill="none" stroke="#333333" d="M1692,-434C1701.76,-434 1712.44,-434 1722.49,-434"/>
<polygon fill="#333333" stroke="#333333" points="1722.67,-435.75 1727.67,-434 1722.67,-432.25 1722.67,-435.75"/>
</g>
</g>
</svg>
